<svg id="OBJECTS" xmlns="http://www.w3.org/2000/svg" xmlns:xlink="http://www.w3.org/1999/xlink" viewBox="0 0 184.08 184.08"><defs><style>.cls-1{fill:none;}.cls-2{fill:#3475c9;}.cls-3{fill:url(#Nueva_muestra_de_motivo_3);}</style><pattern id="Nueva_muestra_de_motivo_3" data-name="Nueva muestra de motivo 3" width="183.61" height="183.84" patternTransform="translate(346.61 -280.92)" patternUnits="userSpaceOnUse" viewBox="0 0 183.61 183.84"><rect class="cls-1" width="183.61" height="183.84"/><path class="cls-2" d="M72.23,129.65l12.07,35.1a2.68,2.68,0,0,1-.13,2,2.63,2.63,0,0,1-1.52,1.35h0L71.43,172h0l-3.55,1.22h0L48.06,180h0l-5.39,1.86-9.37,3.22a2.67,2.67,0,0,1-3.4-1.66l-12.07-35.1a2.58,2.58,0,0,1,1.69-3.29h0l15.38-5.32c-1.55-5.29,1.13-11.22,5.93-12.88h0a9.33,9.33,0,0,1,7.67.88,11.3,11.3,0,0,1,4.93,5.59l.63-.22v0L59,131.39h0l2.35-.81,6.32-2.21v0l1.13-.39a2.69,2.69,0,0,1,3.4,1.66ZM28.78,142.93l-8.4,2.93,0-.09-.51.17h0a1.65,1.65,0,0,0-1.11,2.1l12.07,35.1a1.73,1.73,0,0,0,2.2,1.07l8.93-3.07-9.53-27.73a2.63,2.63,0,0,1-1.05-1.34l-.72-2.1a2.61,2.61,0,0,1,0-1.7Zm11,13a3.06,3.06,0,0,1-.94,1.6,3,3,0,0,1-1.05.62,3.08,3.08,0,0,1-2.95-.53l8,23.18,4.94-1.7Zm-2.26-5.14-1.26-3.66a1,1,0,0,0-.76,0l-2.71.93a1.08,1.08,0,0,0-.58.49,1.07,1.07,0,0,0-.1.91l.72,2.1a1.1,1.1,0,0,0,.64.66,1.16,1.16,0,0,0,.76,0L35,152a.41.41,0,0,1-.05-.09l-.77-2.24a.68.68,0,0,1,.43-.88.69.69,0,0,1,.88.43l.77,2.24s0,.07,0,.1l.72-.25A1.08,1.08,0,0,0,37.52,150.83Zm-.22,1.53-2.71.94a2.56,2.56,0,0,1-.71.11l.88,2.56a2.13,2.13,0,0,0,2.72,1.33,2.07,2.07,0,0,0,.73-.43,2.14,2.14,0,0,0,.6-2.29L37.92,152A2,2,0,0,1,37.3,152.36ZM34.6,140.9l-4.93,1.72,1.76,5.12a2.53,2.53,0,0,1,.37-.36,2.16,2.16,0,0,1,.63-.35l2.71-.93a2.49,2.49,0,0,1,1.23-.06l-.1-.28Zm1.19-1.48,2.35-.81c-.86-3.2.51-7.38,3.81-8.52h0c3.31-1.13,7,1.31,8.26,4.35l2.35-.81a10.39,10.39,0,0,0-4.51-5.08,8.44,8.44,0,0,0-6.91-.81h0a8.34,8.34,0,0,0-4.92,4.9A10.36,10.36,0,0,0,35.79,139.42Zm10.76-7.8a5,5,0,0,0-4.28-.64h0c-2.75,1-3.92,4.58-3.22,7.32l10.28-3.56A7.06,7.06,0,0,0,46.55,131.62Zm7,2.69-18,6.28L37.34,146a2.56,2.56,0,0,1,1,1.34l.73,2.1a2.61,2.61,0,0,1,0,1.7l9.53,27.73,18-6.21-9.53-27.72a2.71,2.71,0,0,1-1-1.34l-.72-2.11a2.58,2.58,0,0,1,0-1.69Zm3.06,4.55a2.25,2.25,0,0,1,.63-.34l2.71-.94a2.23,2.23,0,0,1,.71-.11l-1.73-5-4,1.41Zm1.67,4.85a1.1,1.1,0,0,0,.76,0l.72-.25a.35.35,0,0,1-.05-.08l-.77-2.25a.69.69,0,1,1,1.3-.45L61,143s0,.06,0,.1l.72-.25a1.08,1.08,0,0,0,.58-.49L61,138.65a1.1,1.1,0,0,0-.76,0l-2.71.93A1.13,1.13,0,0,0,57,140Zm1.29,3.75a2.15,2.15,0,0,0,1.08,1.23,2.17,2.17,0,0,0,1.64.1,2.24,2.24,0,0,0,.73-.43,2.15,2.15,0,0,0,.6-2.29l-.89-2.57a2.21,2.21,0,0,1-.62.35l-2.72.93a2.13,2.13,0,0,1-.7.11Zm5,0a3,3,0,0,1-.94,1.61,3.19,3.19,0,0,1-1.06.62,3.06,3.06,0,0,1-2.94-.53l8,23.18,4.94-1.7ZM71.34,130a1.73,1.73,0,0,0-2.2-1.08l-7.46,2.58-1.46.51,1.88,5.48a2.64,2.64,0,0,1,1,1.34l.73,2.11a2.74,2.74,0,0,1,0,1.7l9.53,27.72,8.93-3.07h0a1.76,1.76,0,0,0,1.07-2.2Z"/><path class="cls-2" d="M106.52,86.46l-8.69,9c2.09,2.32,3.25,4.11,3.52,5.46a.53.53,0,0,1-.42.69c-1.36.23-3.46-.25-6.41-1.46l-5.61,11.33a.47.47,0,0,1-.33.27.5.5,0,0,1-.43-.08l-3.25-2.28a.51.51,0,0,1-.21-.47l1-12.2c-4.5-2.51-8.27-5-8.31-5l-7.09-5-1.81,4.42L58.33,115a.49.49,0,0,1-.33.3.71.71,0,0,1-.2,0,.6.6,0,0,1-.25-.1l-5.67-4a.51.51,0,0,1-.22-.49l4.59-33.83-12-8.48c-4.88-3.44-4.5-9.65-4.48-9.92A.52.52,0,0,1,40,58c.24-.1,6-2.57,10.85.87l12,8.48L93.24,51.64a.52.52,0,0,1,.54,0l5.68,4a.53.53,0,0,1,.22.4.5.5,0,0,1-.17.41L77,77.3,84,82.2s3.63,2.76,7.51,6.15l11.17-5a.55.55,0,0,1,.51,0l3.24,2.29a.49.49,0,0,1,.22.38A.52.52,0,0,1,106.52,86.46ZM63.89,68l12.2,8.65,3.69-3.43L98.33,56.15l-4.89-3.44Zm5.48,18L57.21,77.52l-4.48,33,4.9,3.44,9.85-23.23ZM93.55,99.73l-6.89-2.6-.91,11.55,2.5,1.76Zm3.18-4h0l-5.66-6.43c-3.94-3.45-7.63-6.26-7.66-6.29l-7.56-5.25h0L62.59,68.39h0l-12.3-8.66c-3.79-2.67-8.33-1.31-9.53-.88,0,1.27.26,6,4.05,8.67l12.3,8.66,13.2,9.3h0l7.62,5.36s3.9,2.54,8.48,5.09l8,3h0a16.29,16.29,0,0,0,5.7,1.62A16.49,16.49,0,0,0,96.73,95.77Zm8.62-9.6-2.51-1.76L92.29,89.15l4.84,5.5Z"/><path class="cls-2" d="M50,60a.53.53,0,0,1-.31.44,7.46,7.46,0,0,0-4.41,6.26.49.49,0,0,1-.31.43.52.52,0,0,1-.53-.07,8.39,8.39,0,0,1-.93-.86A2.91,2.91,0,0,1,43,63.12a10.48,10.48,0,0,1,2.54-3.6A2.9,2.9,0,0,1,48.66,59a9.9,9.9,0,0,1,1.12.58A.52.52,0,0,1,50,60Zm-1.64,0-.14-.06a1.94,1.94,0,0,0-.51-.14,1.85,1.85,0,0,0-1.48.49A9.51,9.51,0,0,0,44,63.53a1.84,1.84,0,0,0,.34,2l.1.12A8.47,8.47,0,0,1,48.39,60Z"/><path class="cls-2" d="M136,22.29c.18,7.53-12.37,28.33-12.91,29.21l-.42.7-.45-.68c-.58-.85-14.13-21-14.31-28.55A14,14,0,1,1,136,22.29Zm-1,0a13,13,0,1,0-26,.63c.16,6.48,11.27,23.67,13.67,27.32C124.87,46.5,135.14,28.79,135,22.31Z"/><path class="cls-2" d="M131.34,22.4a9.37,9.37,0,1,1-9.59-9.14A9.39,9.39,0,0,1,131.34,22.4Zm-1,0A8.33,8.33,0,1,0,122.18,31,8.34,8.34,0,0,0,130.3,22.42Z"/><path class="cls-2" d="M179.42,71.8A18.87,18.87,0,0,0,168,54.43a2.78,2.78,0,0,0-1.54-5.09h-1.12a8.07,8.07,0,0,0,3-6.33A8.15,8.15,0,0,0,152,43a8.06,8.06,0,0,0,3,6.33h-1.11a2.77,2.77,0,0,0-1.24,5.26,18.9,18.9,0,1,0,26.73,17.2ZM156.83,50.38a.52.52,0,0,0,.51-.4.53.53,0,0,0-.28-.58,7.11,7.11,0,1,1,6.22,0A.52.52,0,0,0,163,50a.52.52,0,0,0,.51.4h2.9a1.74,1.74,0,1,1,0,3.47h-.08a.52.52,0,0,0-.51.44.52.52,0,0,0,.35.58,17.87,17.87,0,1,1-11.3,0,.51.51,0,0,0,.34-.58.52.52,0,0,0-.51-.44h-.77a1.74,1.74,0,1,1,0-3.47ZM164.16,43a4,4,0,1,0-4,4A4,4,0,0,0,164.16,43Zm-1,0a2.95,2.95,0,1,1-3-2.95A3,3,0,0,1,163.12,43Z"/><path class="cls-2" d="M174.22,72A13.18,13.18,0,1,0,161,85.16,13.2,13.2,0,0,0,174.22,72Zm-1,0A12.14,12.14,0,1,1,161,59.84,12.16,12.16,0,0,1,173.18,72Z"/><path class="cls-2" d="M163.63,71.11c0-1.8-1.95-6.59-2-6.79l-.48-1.18-.48,1.18c-.09.2-2,5-2,6.79,0,2,1.1,3.64,2.51,3.64S163.63,73.15,163.63,71.11Zm-1,0c0,1.39-.69,2.6-1.47,2.6s-1.47-1.21-1.47-2.6A22.37,22.37,0,0,1,161.12,66,22.37,22.37,0,0,1,162.59,71.11Z"/><path class="cls-2" d="M124.42,178.57a.94.94,0,0,0-.77-1.07,12.55,12.55,0,0,1-3-.85.93.93,0,1,0-.72,1.71,14.68,14.68,0,0,0,3.37,1l.15,0A.94.94,0,0,0,124.42,178.57Zm-6.51-2.32a.93.93,0,0,0-.19-1.3,14.67,14.67,0,0,1-2.52-2.34.91.91,0,0,0-1.3-.1.92.92,0,0,0-.11,1.3,17.15,17.15,0,0,0,2.83,2.63.88.88,0,0,0,.55.19A.91.91,0,0,0,117.91,176.25Zm-5-5.24a.93.93,0,0,0,.4-1.25,13.8,13.8,0,0,1-1.2-3.2l0-.1c.59.14,1.16.25,1.71.34a.93.93,0,0,0,1.06-.78A.92.92,0,0,0,114,165a22.73,22.73,0,0,1-3.25-.79l-.15-.05a.93.93,0,1,0-.57,1.76l.16.06.36.11a.89.89,0,0,0-.31.92,15.59,15.59,0,0,0,1.35,3.63.93.93,0,0,0,.83.5A.9.9,0,0,0,112.88,171Zm4.78-4.1a10.8,10.8,0,0,0,2.7-.68,7.26,7.26,0,0,0,1.12-.55.92.92,0,1,0-.94-1.59,6.2,6.2,0,0,1-.86.42,9,9,0,0,1-2.24.56.92.92,0,0,0,.11,1.84Zm-9.86-2.85a.93.93,0,0,0-.43-1.24,18.07,18.07,0,0,1-3-1.81.93.93,0,1,0-1.12,1.48,20.32,20.32,0,0,0,3.27,2,1,1,0,0,0,.4.09A.94.94,0,0,0,107.8,164.06Zm3.94-.88a11.63,11.63,0,0,1,.62-3.31.92.92,0,0,0-.56-1.18.94.94,0,0,0-1.19.56,13.33,13.33,0,0,0-.72,3.86.93.93,0,0,0,.89,1h0A.92.92,0,0,0,111.74,163.18Zm12.65-.33a6.94,6.94,0,0,0,1.12-3.69c0-.11,0-.21,0-.32a.9.9,0,0,0-1-.87.94.94,0,0,0-.88,1,1.48,1.48,0,0,1,0,.21,5.14,5.14,0,0,1-.84,2.71.93.93,0,0,0,.3,1.28,1,1,0,0,0,.49.14A.93.93,0,0,0,124.39,162.85Zm-22.57-2.93a.93.93,0,0,0,.17-1.3,10.18,10.18,0,0,1-1.58-2.94.93.93,0,1,0-1.75.6,12.11,12.11,0,0,0,1.86,3.47.9.9,0,0,0,.73.36A.93.93,0,0,0,101.82,159.92ZM114,157a6.87,6.87,0,0,1,1.63-1.38,5.67,5.67,0,0,1,.93-.44.92.92,0,1,0-.61-1.74,7.38,7.38,0,0,0-1.27.59,8.92,8.92,0,0,0-2.08,1.76.92.92,0,0,0,.09,1.3.9.9,0,0,0,.61.23A.92.92,0,0,0,114,157Zm9.77-.72a.93.93,0,0,0,0-1.31,7.2,7.2,0,0,0-3.71-1.83.94.94,0,0,0-1.08.74.92.92,0,0,0,.75,1.08,5.45,5.45,0,0,1,2.76,1.35.92.92,0,0,0,1.31,0Zm-23.85-3.88a7,7,0,0,1,.69-2.89l.11-.21a.93.93,0,1,0-1.64-.87l-.14.27a9.07,9.07,0,0,0-.88,3.64.94.94,0,0,0,.9,1h0A.94.94,0,0,0,99.91,152.41Zm2.88-5.67a24.75,24.75,0,0,1,2.83-2.09.93.93,0,1,0-1-1.55,26.42,26.42,0,0,0-3,2.25.93.93,0,0,0-.08,1.31.94.94,0,0,0,1.31.08Zm5.91-4.11.44-.32a22.69,22.69,0,0,0,2.49-2.12.93.93,0,0,0-1.31-1.32,20.88,20.88,0,0,1-2.27,1.95l-.41.29a.93.93,0,0,0,.53,1.69A1,1,0,0,0,108.7,142.63Zm5.4-5.33a23.29,23.29,0,0,0,2-3.25.92.92,0,0,0-1.65-.83,22.77,22.77,0,0,1-1.83,3,.92.92,0,0,0,.21,1.29.9.9,0,0,0,.54.18A.91.91,0,0,0,114.1,137.3Zm3.43-6.76a23.84,23.84,0,0,0,.88-3.69.92.92,0,0,0-.77-1.06.93.93,0,0,0-1.06.77,22.24,22.24,0,0,1-.81,3.41.93.93,0,0,0,.59,1.17,1,1,0,0,0,.29,0A.92.92,0,0,0,117.53,130.54Zm.24-6.55a.93.93,0,0,0,.92-.94c0-.73,0-1.46-.13-2.17q-.09-.82-.24-1.62a.93.93,0,0,0-1.08-.74.91.91,0,0,0-.74,1.08c.09.49.16,1,.22,1.48.07.65.11,1.32.12,2a.92.92,0,0,0,.92.92Zm-1-7.21a.93.93,0,0,0,.55-1.19,25.11,25.11,0,0,0-1.59-3.46.93.93,0,0,0-1.62.91,22.94,22.94,0,0,1,1.47,3.19.93.93,0,0,0,.87.6A1.25,1.25,0,0,0,116.76,116.78Zm-3.31-6.5a.92.92,0,0,0,.15-1.3,23.48,23.48,0,0,0-2.57-2.79.93.93,0,1,0-1.26,1.36,22.36,22.36,0,0,1,2.38,2.57.9.9,0,0,0,.73.36A.94.94,0,0,0,113.45,110.28Zm-5.15-5.16a.93.93,0,0,0-.26-1.28,21.86,21.86,0,0,0-3.35-1.83.93.93,0,1,0-.74,1.7,20.36,20.36,0,0,1,3.07,1.67.86.86,0,0,0,.51.16A.93.93,0,0,0,108.3,105.12Z"/><path class="cls-2" d="M176.27,109.88a2.67,2.67,0,0,1,1.88-3.3h0a2.62,2.62,0,0,1,2,.26,2.69,2.69,0,0,1,1,3.66,2.69,2.69,0,0,1-1.63,1.27h0A2.69,2.69,0,0,1,176.27,109.88Zm1-.27a1.65,1.65,0,0,0,2,1.15h0a1.65,1.65,0,0,0-.86-3.18h0a1.67,1.67,0,0,0-1.15,2Z"/><path class="cls-2" d="M174.58,124c0,.07,0,.14.07.21a12.77,12.77,0,0,1-8.91,15.63h-.06a12.75,12.75,0,0,1-15.57-8.92h0a1.74,1.74,0,0,1-.05-.22l0-.13a12.65,12.65,0,0,1,9-15.28l.06,0a12.66,12.66,0,0,1,15.47,8.61Zm-.94.48-.1-.29a11.61,11.61,0,0,0-14.2-7.9h-.05a11.62,11.62,0,0,0-8.25,14l.07.32a11.68,11.68,0,0,0,22.53-6.18Z"/><path class="cls-2" d="M191.8,131.66a7.54,7.54,0,0,1-5.32,9.28L148.35,151.2a7.56,7.56,0,0,1-9.24-5.29l-7-25.48a5.23,5.23,0,0,1,2-5.66l-.9-3.3,14.43-3.94.82,3,29.84-8.18a5.28,5.28,0,0,1,4,.5,5.17,5.17,0,0,1,2.46,3.16l4,14.52h0L190,125h0Zm-4.06-10.87-10.48,2.87a15.06,15.06,0,0,1,.46,4.69L189,125.28Zm-53.2-8.59.55,2,.68-.19h0l.1.37-.1-.37,11.74-3.16-.56-2Zm56.26,19.73-1.55-5.65-12.7,3.47.08-.76a14.45,14.45,0,0,0-.42-5.25l-.25-.81,11.51-3.14-3.7-13.51a4.19,4.19,0,0,0-5.12-2.94h0l-30.35,8.31,0,.06L136.05,115h0a4.19,4.19,0,0,0-2.92,5.14l3.69,13.48,11.53-3.15.16.69a.83.83,0,0,0,0,.15,14.28,14.28,0,0,0,2.3,4.72l.46.61-12.71,3.48,1.51,5.5a6.52,6.52,0,0,0,8,4.57l38.13-10.26a6.51,6.51,0,0,0,4.59-8Zm-52.47,7.19,11.25-3.07a15.65,15.65,0,0,1-2-4.29l-10.49,2.87Z"/><path class="cls-2" d="M143,117.43l.87,3.19-5.8,1.59-.88-3.19Zm-.41,2.46-.32-1.18-3.8,1,.33,1.18Z"/><path class="cls-2" d="M188.6,133.24l.88,3.19L183.67,138l-.87-3.19Zm-.4,2.46-.33-1.18-3.79,1,.32,1.18Z"/><path class="cls-2" d="M171.84,124.71c0,.08,0,.16.08.24A9.88,9.88,0,0,1,165,137.08l0,0a9.9,9.9,0,0,1-12.1-6.93,2.38,2.38,0,0,1-.05-.26l0-.13a9.84,9.84,0,0,1,7-11.75h0a9.84,9.84,0,0,1,12,6.57Zm-.93.51a1.09,1.09,0,0,0,0-.17l-.05-.15A8.82,8.82,0,0,0,160.09,119h0a8.81,8.81,0,0,0-6.26,10.52l0,.16c0,.06,0,.12.05.18a8.74,8.74,0,0,0,2.85,4.44,8.84,8.84,0,0,0,8,1.76h0a8.84,8.84,0,0,0,6.18-10.86Z"/><path class="cls-2" d="M167,122.76a3,3,0,1,1-3.62-2.08A3,3,0,0,1,167,122.76Zm-1,.27a1.91,1.91,0,1,0-1.35,2.33A1.91,1.91,0,0,0,166,123Z"/><path class="cls-2" d="M38.49,35.84a.54.54,0,0,1,.31.28.5.5,0,0,1,0,.4.14.14,0,0,0,0,.06l-.52,1a1.47,1.47,0,0,1,.42.47.56.56,0,0,1,0,.4.53.53,0,0,1-.27.3,1.25,1.25,0,0,1-.62.12L37.64,40a.55.55,0,0,1-.25.36.54.54,0,0,1-.43,0l-.46-.15a.54.54,0,0,1-.34-.39l-.25-1.18c-.51-.12-.89-.23-.89-.23l-.38-.13-.12.14-.34,3a.53.53,0,0,1-.24.39l-.11,0a.47.47,0,0,1-.33,0l-.81-.27a.51.51,0,0,1-.34-.41l-.6-3.85-1.44-.49a1.87,1.87,0,0,1-1.17-1.34.5.5,0,0,1,.17-.51,1.9,1.9,0,0,1,1.74-.36l1.44.49,2.81-2.71a.5.5,0,0,1,.52-.11l.81.27a.49.49,0,0,1,.32.31.51.51,0,0,1,0,.45l-1.54,2.58v.18l.36.12s.4.15.87.36l.92-.79a.5.5,0,0,1,.5-.1l.26.09.06,0ZM37.13,37.5l-.09.08a.5.5,0,0,1-.56.08c-.57-.26-1.08-.46-1.09-.46L34.71,37a.52.52,0,0,1-.35-.47l0-.69a.6.6,0,0,1,.08-.29l1.09-1.84L33,36.1a.51.51,0,0,1-.53.11l-1.74-.58a.61.61,0,0,0-.4,0,.7.7,0,0,0,.32.23l1.74.59a.53.53,0,0,1,.35.41l.53,3.44.24-2.12a.47.47,0,0,1,.12-.28l.45-.53a.5.5,0,0,1,.56-.16l.7.23s.52.16,1.13.29a.52.52,0,0,1,.39.4l0,.13v0a.49.49,0,0,1,.2-.33.53.53,0,0,1,0-.39Z"/><path class="cls-2" d="M50.2,24.89l-.62-1.84a.51.51,0,0,1,.33-.66l24.33-8.17a.53.53,0,0,1,.66.33l.62,1.85a.52.52,0,0,1-.33.65L50.86,25.22A.52.52,0,0,1,50.2,24.89Zm.82-.82,23.35-7.84-.29-.86L50.73,23.21Z"/><path class="cls-2" d="M77.14.52l9.08,27.05a.53.53,0,0,1-.33.66L54.49,38.77l-5.43,1.82-2.3.77L26.37,48.2a.53.53,0,0,1-.66-.33l-9.07-27a.51.51,0,0,1,.32-.66L76.48.19A.52.52,0,0,1,77.14.52ZM38.23,14.32l8.69,25.89,1.32-.45L39.55,13.88ZM26.53,47.05l19.4-6.51L37.19,14.47,17.79,21ZM76.32,1.34l-35.84,12,8.74,26.06,4.93-1.65L85.07,27.41Z"/><path class="cls-2" d="M34.93,19.15l3.12,9.3a.51.51,0,0,1-.33.66l-10.8,3.63a.52.52,0,0,1-.65-.33l-3.12-9.3a.51.51,0,0,1,.32-.66l10.8-3.62A.51.51,0,0,1,34.93,19.15Zm-.82.83L24.3,23.27l2.79,8.31,9.81-3.29Z"/><path class="cls-2" d="M48.24,19.05l-.62-1.85a.51.51,0,0,1,.33-.65L72.28,8.38a.53.53,0,0,1,.66.33l.62,1.84a.52.52,0,0,1-.33.66L48.9,19.38A.52.52,0,0,1,48.24,19.05Zm.82-.82,23.35-7.84-.29-.86L48.77,17.37Z"/><path class="cls-2" d="M52.36,31.34l-.62-1.84a.53.53,0,0,1,.33-.66l24.34-8.16a.51.51,0,0,1,.65.33l.62,1.84a.52.52,0,0,1-.32.66L53,31.67A.52.52,0,0,1,52.36,31.34Zm.82-.82,23.35-7.83-.29-.86L52.9,29.66Z"/><rect class="cls-2" x="6.76" y="51.08" width="1.04" height="13.53"/><rect class="cls-2" y="57.33" width="14.57" height="1.04"/><rect class="cls-2" x="123.31" y="73.45" width="1.04" height="13.53"/><rect class="cls-2" x="116.54" y="79.7" width="14.57" height="1.04"/><rect class="cls-2" x="172.28" y="163.99" width="1.04" height="13.53"/><rect class="cls-2" x="165.52" y="170.23" width="14.57" height="1.04"/><path class="cls-2" d="M25,113l4.23-2.32L25,108.33l-2.32-4.24-2.31,4.24-4.24,2.31L20.36,113l2.31,4.23Zm-3.87-3.87,1.55-2.83,1.55,2.83,2.83,1.55-2.83,1.55L22.67,115l-1.55-2.83-2.83-1.55Z"/><path class="cls-2" d="M185.93,27.12l4.23-2.31-4.23-2.32-2.31-4.23-2.32,4.23-4.23,2.32,4.23,2.31,2.32,4.23Zm-3.86-3.86,1.55-2.83,1.54,2.83L188,24.81l-2.83,1.55-1.54,2.83-1.55-2.83-2.83-1.55Z"/><path class="cls-2" d="M37.43,93.94l4.24-2.32-4.24-2.31-2.31-4.24L32.8,89.31l-4.23,2.31,4.23,2.32,2.32,4.23Zm-3.86-3.87,1.55-2.83,1.55,2.83,2.83,1.55-2.83,1.55L35.12,96l-1.55-2.83-2.83-1.55Z"/><path class="cls-2" d="M8.19,131.66a7.55,7.55,0,0,1-.73,5.75,7.51,7.51,0,0,1-4.59,3.53L-35.26,151.2a7.57,7.57,0,0,1-9.25-5.29l-7-25.48a5.24,5.24,0,0,1,2-5.66l-.9-3.3,14.43-3.94.82,3,29.84-8.18a5.28,5.28,0,0,1,4,.5A5.19,5.19,0,0,1,1.16,106l4,14.52h0L6.34,125h0ZM4.13,120.79l-10.48,2.87a15.37,15.37,0,0,1,.46,4.69l11.23-3.07Zm-53.21-8.59.55,2,.69-.19h0l.1.37-.1-.37,11.75-3.16-.56-2ZM7.18,131.93l-1.54-5.65-12.7,3.47L-7,129a14.24,14.24,0,0,0-.43-5.25l-.25-.81,11.52-3.14L.16,106.28a4.17,4.17,0,0,0-2-2.53A4.15,4.15,0,0,0-5,103.34h0l-30.34,8.31v.06L-47.56,115h0a4.21,4.21,0,0,0-2.93,5.14l3.7,13.48,11.52-3.15.17.69,0,.15A14.31,14.31,0,0,0-32.76,136l.45.61L-45,140.13l1.5,5.5a6.53,6.53,0,0,0,8,4.57L2.6,139.94a6.45,6.45,0,0,0,4-3.05A6.43,6.43,0,0,0,7.18,131.93Zm-52.46,7.19L-34,136.05a15.09,15.09,0,0,1-2-4.29l-10.5,2.87Z"/><path class="cls-2" d="M5,133.24l.87,3.19L.06,138l-.88-3.19Zm-.41,2.46-.32-1.18-3.8,1,.32,1.18Z"/><path class="cls-2" d="M2.32,27.12l4.23-2.31L2.32,22.49,0,18.26l-2.31,4.23-4.24,2.32,4.24,2.31L0,31.35Zm-3.87-3.86L0,20.43l1.55,2.83,2.83,1.55L1.55,26.36,0,29.19l-1.55-2.83-2.83-1.55Z"/><path class="cls-2" d="M72.23-54.2,84.3-19.1a2.67,2.67,0,0,1-.13,2,2.68,2.68,0,0,1-1.52,1.36h0L71.43-11.85h0l-3.55,1.22h0L48.06-3.81h0L42.67-2,33.3,1.27A2.68,2.68,0,0,1,29.9-.39L17.83-35.49a2.59,2.59,0,0,1,1.69-3.3h0L34.9-44.11C33.35-49.4,36-55.33,40.83-57h0a9.33,9.33,0,0,1,7.67.88,11.25,11.25,0,0,1,4.93,5.59l.63-.22v0L59-52.45h0l2.35-.81,6.32-2.21v0l1.13-.4a2.68,2.68,0,0,1,2,.13A2.66,2.66,0,0,1,72.23-54.2ZM28.78-40.91,20.38-38l0-.1-.51.18h0a1.65,1.65,0,0,0-1.11,2.1L30.79-.7A1.73,1.73,0,0,0,33,.37L41.92-2.7,32.39-30.42a2.63,2.63,0,0,1-1.05-1.34l-.72-2.11a2.58,2.58,0,0,1,0-1.69Zm11,13a3,3,0,0,1-.94,1.61,3,3,0,0,1-1.05.62,3.08,3.08,0,0,1-2.95-.53L42.81-3l4.94-1.7ZM37.52-33l-1.26-3.67a1.1,1.1,0,0,0-.76,0l-2.71.94a1,1,0,0,0-.58.49,1,1,0,0,0-.1.9l.72,2.11a1.08,1.08,0,0,0,.64.65,1.1,1.1,0,0,0,.76,0l.72-.25a.35.35,0,0,1-.05-.08l-.77-2.25a.68.68,0,0,1,.43-.88.7.7,0,0,1,.88.43l.77,2.25s0,.06,0,.1l.72-.25A1.08,1.08,0,0,0,37.52-33Zm-.22,1.53-2.71.93a2.23,2.23,0,0,1-.71.11l.88,2.57a2.12,2.12,0,0,0,1.08,1.23,2.17,2.17,0,0,0,1.64.1,2.24,2.24,0,0,0,.73-.43,2.15,2.15,0,0,0,.6-2.29l-.89-2.57A2.21,2.21,0,0,1,37.3-31.48ZM34.6-42.94l-4.93,1.72,1.76,5.12a1.8,1.8,0,0,1,.37-.36,2.16,2.16,0,0,1,.63-.35l2.71-.94a2.23,2.23,0,0,1,.71-.11,2.24,2.24,0,0,1,.52.06l-.1-.28Zm1.19-1.48,2.35-.81c-.86-3.21.51-7.38,3.81-8.53h0c3.31-1.14,7,1.3,8.26,4.35l2.35-.82a10.37,10.37,0,0,0-4.51-5.07,8.4,8.4,0,0,0-6.91-.81h0a8.4,8.4,0,0,0-4.92,4.9A10.4,10.4,0,0,0,35.79-44.42Zm10.76-7.8a5.08,5.08,0,0,0-4.28-.65h0c-2.75,1-3.92,4.59-3.22,7.33L49.32-49.1A7.06,7.06,0,0,0,46.55-52.22Zm7,2.69-18,6.28,1.85,5.37a2.64,2.64,0,0,1,1,1.34l.73,2.11a2.61,2.61,0,0,1,0,1.7L48.64-5l18-6.2L57.15-38.93a2.71,2.71,0,0,1-1-1.34l-.72-2.11a2.61,2.61,0,0,1,0-1.7ZM56.56-45a2.27,2.27,0,0,1,.63-.35l2.71-.93a2.23,2.23,0,0,1,.71-.11l-1.73-5-4,1.41Zm1.67,4.85a1.1,1.1,0,0,0,.76,0l.72-.25a.41.41,0,0,1-.05-.09l-.77-2.24a.68.68,0,0,1,.42-.88.69.69,0,0,1,.88.43L61-40.89s0,.07,0,.1L61.7-41a1.07,1.07,0,0,0,.58-.48L61-45.19a1.1,1.1,0,0,0-.76,0l-2.71.93a1.08,1.08,0,0,0-.58.49Zm1.29,3.74a2.09,2.09,0,0,0,1.08,1.23,2.13,2.13,0,0,0,1.64.1,2.07,2.07,0,0,0,.73-.43,2.14,2.14,0,0,0,.6-2.29l-.89-2.57a2,2,0,0,1-.62.35l-2.72.94a2.13,2.13,0,0,1-.7.11Zm5,0a3,3,0,0,1-.94,1.6,2.88,2.88,0,0,1-1.06.62,3.06,3.06,0,0,1-2.94-.53l8,23.18,4.94-1.7Zm6.8-17.5a1.75,1.75,0,0,0-.88-1A1.73,1.73,0,0,0,69.14-55l-7.46,2.58-1.46.51,1.88,5.48a2.6,2.6,0,0,1,1,1.34l.73,2.11a2.74,2.74,0,0,1,0,1.7L73.4-13.52l8.93-3.07h0a1.73,1.73,0,0,0,1-.88,1.69,1.69,0,0,0,.09-1.32Z"/></pattern></defs><rect class="cls-3" width="184.08" height="184.08"/></svg>